<svg width="800" height="450" viewBox="0 0 800 450" fill="none" xmlns="http://www.w3.org/2000/svg">
  <rect width="800" height="450" fill="#0a0a0c"/>
  <defs>
    <pattern id="grid" width="30" height="30" patternUnits="userSpaceOnUse">
      <path d="M 30 0 L 0 0 0 30" fill="none" stroke="#22c55e" stroke-width="0.3" opacity="0.2"/>
    </pattern>
  </defs>
  <rect width="800" height="450" fill="url(#grid)"/>
  <!-- Document -->
  <rect x="250" y="100" width="300" height="220" rx="12" fill="#18181b" stroke="#27272a" stroke-width="2"/>
  <rect x="270" y="130" width="180" height="15" rx="4" fill="#3f3f46"/>
  <rect x="270" y="160" width="260" height="8" rx="4" fill="#27272a"/>
  <rect x="270" y="180" width="240" height="8" rx="4" fill="#27272a"/>
  <rect x="270" y="200" width="200" height="8" rx="4" fill="#27272a"/>
  <rect x="270" y="230" width="220" height="8" rx="4" fill="#27272a"/>
  <!-- Cursors -->
  <rect x="350" y="158" width="2" height="12" fill="#22c55e"/>
  <rect x="420" y="178" width="2" height="12" fill="#3b82f6"/>
  <!-- User avatars -->
  <circle cx="520" cy="280" r="20" fill="#22c55e"/>
  <text x="520" y="285" text-anchor="middle" fill="white" font-family="system-ui" font-size="12" font-weight="bold">UH</text>
  <circle cx="480" cy="280" r="20" fill="#3b82f6"/>
  <text x="480" y="285" text-anchor="middle" fill="white" font-family="system-ui" font-size="12" font-weight="bold">AB</text>
  <text x="400" y="380" text-anchor="middle" fill="#71717a" font-family="system-ui" font-size="14">Real-Time Collaboration</text>
</svg>
